<svg xmlns="http://www.w3.org/2000/svg" viewBox="0 0 32 32" width="32" height="32">
  <title>VidaReal</title>
  <rect width="32" height="32" rx="7" fill="#ff8101"/>
  <path fill="#16130f" d="M15.9 10.75L12.28 21.25L9.6 21.25L6.03 10.75L8.58 10.75L10.77 18.06L10.85 18.35L10.91 18.62L10.95 18.87L10.98 19.11L11.02 19.11L11.06 18.85L11.11 18.59L11.17 18.32L11.25 18.03L13.43 10.75ZM25.97 21.25L23.25 21.25L21.62 18.55L21.53 18.4L21.44 18.26L21.35 18.12L21.27 18L21.19 17.88L21.1 17.78L21.02 17.68L20.93 17.59L20.84 17.5L20.75 17.43L20.66 17.37L20.57 17.32L20.47 17.28L20.38 17.25L20.27 17.24L20.16 17.23L19.53 17.23L19.53 21.25L17.16 21.25L17.16 10.75L20.91 10.75L21.37 10.76L21.81 10.79L22.21 10.85L22.58 10.93L22.93 11.03L23.24 11.15L23.52 11.29L23.78 11.46L24 11.65L24.2 11.86L24.36 12.1L24.5 12.35L24.6 12.63L24.67 12.94L24.72 13.26L24.73 13.6L24.72 13.87L24.69 14.13L24.64 14.38L24.57 14.62L24.47 14.85L24.36 15.06L24.23 15.27L24.09 15.46L23.93 15.64L23.75 15.81L23.56 15.96L23.35 16.1L23.12 16.23L22.89 16.34L22.64 16.44L22.38 16.53L22.38 16.56L22.49 16.6L22.61 16.65L22.72 16.72L22.83 16.79L23.05 16.97L23.25 17.18L23.46 17.41L23.65 17.65L23.82 17.9L23.99 18.15ZM19.53 12.52L19.53 15.44L20.55 15.44L20.74 15.44L20.91 15.42L21.08 15.38L21.24 15.33L21.39 15.27L21.53 15.2L21.66 15.11L21.78 15L21.89 14.89L21.98 14.77L22.06 14.64L22.13 14.5L22.18 14.36L22.22 14.21L22.24 14.06L22.24 13.9L22.24 13.73L22.22 13.58L22.19 13.43L22.14 13.3L22.08 13.17L22.01 13.06L21.93 12.96L21.83 12.86L21.72 12.78L21.6 12.71L21.46 12.66L21.32 12.61L21.16 12.57L20.98 12.54L20.8 12.53L20.6 12.52Z"/>
</svg>